<mxfile host="app.diagrams.net" modified="2020-11-07T22:49:29.522Z" agent="5.0 (Windows NT 10.0; Win64; x64) AppleWebKit/537.36 (KHTML, like Gecko) Chrome/85.0.4183.121 Safari/537.36 OPR/71.0.3770.310" etag="_tIdXZjpI6mVwsRDmM88" version="13.8.8" type="github">
  <diagram id="2-PS80yu1LOaavo1AS4o" name="Page-1">
    <mxGraphModel dx="2343" dy="1546" grid="1" gridSize="10" guides="1" tooltips="1" connect="1" arrows="1" fold="1" page="1" pageScale="1" pageWidth="827" pageHeight="1169" math="0" shadow="0">
      <root>
        <mxCell id="0" />
        <mxCell id="1" parent="0" />
        <mxCell id="_6vL-Fmfz16tMaVCGUEi-57" value="" style="shape=folder;fontStyle=1;spacingTop=10;tabWidth=40;tabHeight=14;tabPosition=left;html=1;" parent="1" vertex="1">
          <mxGeometry x="-1520" y="-450" width="590" height="750" as="geometry" />
        </mxCell>
        <mxCell id="_6vL-Fmfz16tMaVCGUEi-20" value="" style="shape=folder;fontStyle=1;spacingTop=10;tabWidth=40;tabHeight=14;tabPosition=left;html=1;fillColor=#ffffff;" parent="1" vertex="1">
          <mxGeometry x="-820" y="-420" width="2080" height="1550" as="geometry" />
        </mxCell>
        <mxCell id="f4DITkPFxF15eC7RWUfP-1" value="User" style="swimlane;fontStyle=1;align=center;verticalAlign=top;childLayout=stackLayout;horizontal=1;startSize=26;horizontalStack=0;resizeParent=1;resizeParentMax=0;resizeLast=0;collapsible=1;marginBottom=0;fillColor=none;" parent="1" vertex="1">
          <mxGeometry x="-570" y="700" width="250" height="241" as="geometry" />
        </mxCell>
        <mxCell id="f4DITkPFxF15eC7RWUfP-2" value="-name:String&#xa;-password:String&#xa;-age:byte&#xa;-shareSongs:int" style="text;strokeColor=none;fillColor=none;align=left;verticalAlign=top;spacingLeft=4;spacingRight=4;overflow=hidden;rotatable=0;points=[[0,0.5],[1,0.5]];portConstraint=eastwest;" parent="f4DITkPFxF15eC7RWUfP-1" vertex="1">
          <mxGeometry y="26" width="250" height="64" as="geometry" />
        </mxCell>
        <mxCell id="f4DITkPFxF15eC7RWUfP-3" value="" style="line;strokeWidth=1;fillColor=none;align=left;verticalAlign=middle;spacingTop=-1;spacingLeft=3;spacingRight=3;rotatable=0;labelPosition=right;points=[];portConstraint=eastwest;" parent="f4DITkPFxF15eC7RWUfP-1" vertex="1">
          <mxGeometry y="90" width="250" height="8" as="geometry" />
        </mxCell>
        <mxCell id="KiHyuANmDvBm40jnsKNg-2" value="+User(name:String,password:String,age:byte)" style="text;strokeColor=none;fillColor=none;align=left;verticalAlign=top;spacingLeft=4;spacingRight=4;overflow=hidden;rotatable=0;points=[[0,0.5],[1,0.5]];portConstraint=eastwest;" parent="f4DITkPFxF15eC7RWUfP-1" vertex="1">
          <mxGeometry y="98" width="250" height="20" as="geometry" />
        </mxCell>
        <mxCell id="KiHyuANmDvBm40jnsKNg-1" value="+User()" style="text;strokeColor=none;fillColor=none;align=left;verticalAlign=top;spacingLeft=4;spacingRight=4;overflow=hidden;rotatable=0;points=[[0,0.5],[1,0.5]];portConstraint=eastwest;" parent="f4DITkPFxF15eC7RWUfP-1" vertex="1">
          <mxGeometry y="118" width="250" height="22" as="geometry" />
        </mxCell>
        <mxCell id="KiHyuANmDvBm40jnsKNg-3" value="+set*(*):void" style="text;strokeColor=none;fillColor=none;align=left;verticalAlign=top;spacingLeft=4;spacingRight=4;overflow=hidden;rotatable=0;points=[[0,0.5],[1,0.5]];portConstraint=eastwest;" parent="f4DITkPFxF15eC7RWUfP-1" vertex="1">
          <mxGeometry y="140" width="250" height="21" as="geometry" />
        </mxCell>
        <mxCell id="f4DITkPFxF15eC7RWUfP-4" value="+get*():*" style="text;strokeColor=none;fillColor=none;align=left;verticalAlign=top;spacingLeft=4;spacingRight=4;overflow=hidden;rotatable=0;points=[[0,0.5],[1,0.5]];portConstraint=eastwest;" parent="f4DITkPFxF15eC7RWUfP-1" vertex="1">
          <mxGeometry y="161" width="250" height="20" as="geometry" />
        </mxCell>
        <mxCell id="KiHyuANmDvBm40jnsKNg-9" value="+modifyCategory():void" style="text;strokeColor=none;fillColor=none;align=left;verticalAlign=top;spacingLeft=4;spacingRight=4;overflow=hidden;rotatable=0;points=[[0,0.5],[1,0.5]];portConstraint=eastwest;" parent="f4DITkPFxF15eC7RWUfP-1" vertex="1">
          <mxGeometry y="181" width="250" height="20" as="geometry" />
        </mxCell>
        <mxCell id="KiHyuANmDvBm40jnsKNg-8" value="+increaseShareSongs():void" style="text;strokeColor=none;fillColor=none;align=left;verticalAlign=top;spacingLeft=4;spacingRight=4;overflow=hidden;rotatable=0;points=[[0,0.5],[1,0.5]];portConstraint=eastwest;" parent="f4DITkPFxF15eC7RWUfP-1" vertex="1">
          <mxGeometry y="201" width="250" height="20" as="geometry" />
        </mxCell>
        <mxCell id="KiHyuANmDvBm40jnsKNg-10" value="+infoUser():String" style="text;strokeColor=none;fillColor=none;align=left;verticalAlign=top;spacingLeft=4;spacingRight=4;overflow=hidden;rotatable=0;points=[[0,0.5],[1,0.5]];portConstraint=eastwest;" parent="f4DITkPFxF15eC7RWUfP-1" vertex="1">
          <mxGeometry y="221" width="250" height="20" as="geometry" />
        </mxCell>
        <mxCell id="f4DITkPFxF15eC7RWUfP-5" value="&lt;&lt;enumeration&gt;&gt;&#xa;Category" style="swimlane;fontStyle=0;childLayout=stackLayout;horizontal=1;startSize=26;fillColor=none;horizontalStack=0;resizeParent=1;resizeParentMax=0;resizeLast=0;collapsible=1;marginBottom=0;" parent="1" vertex="1">
          <mxGeometry x="-790" y="710" width="140" height="90" as="geometry" />
        </mxCell>
        <mxCell id="f4DITkPFxF15eC7RWUfP-6" value="NEWBIE&#xa;LITTLE_CONTRIBUTOR&#xa;MILD_CONTRIBUTOR&#xa;STAR_CONTRIBUTOR" style="text;strokeColor=none;fillColor=none;align=left;verticalAlign=top;spacingLeft=4;spacingRight=4;overflow=hidden;rotatable=0;points=[[0,0.5],[1,0.5]];portConstraint=eastwest;" parent="f4DITkPFxF15eC7RWUfP-5" vertex="1">
          <mxGeometry y="26" width="140" height="64" as="geometry" />
        </mxCell>
        <mxCell id="f4DITkPFxF15eC7RWUfP-12" value="Song" style="swimlane;fontStyle=1;align=center;verticalAlign=top;childLayout=stackLayout;horizontal=1;startSize=26;horizontalStack=0;resizeParent=1;resizeParentMax=0;resizeLast=0;collapsible=1;marginBottom=0;" parent="1" vertex="1">
          <mxGeometry x="150" y="-360" width="480" height="291" as="geometry" />
        </mxCell>
        <mxCell id="KiHyuANmDvBm40jnsKNg-39" value="-tittle:String" style="text;strokeColor=none;fillColor=none;align=left;verticalAlign=top;spacingLeft=4;spacingRight=4;overflow=hidden;rotatable=0;points=[[0,0.5],[1,0.5]];portConstraint=eastwest;" parent="f4DITkPFxF15eC7RWUfP-12" vertex="1">
          <mxGeometry y="26" width="480" height="20" as="geometry" />
        </mxCell>
        <mxCell id="KiHyuANmDvBm40jnsKNg-40" value="-nameArtist:String" style="text;strokeColor=none;fillColor=none;align=left;verticalAlign=top;spacingLeft=4;spacingRight=4;overflow=hidden;rotatable=0;points=[[0,0.5],[1,0.5]];portConstraint=eastwest;" parent="f4DITkPFxF15eC7RWUfP-12" vertex="1">
          <mxGeometry y="46" width="480" height="20" as="geometry" />
        </mxCell>
        <mxCell id="KiHyuANmDvBm40jnsKNg-41" value="-releaseDate:String" style="text;strokeColor=none;fillColor=none;align=left;verticalAlign=top;spacingLeft=4;spacingRight=4;overflow=hidden;rotatable=0;points=[[0,0.5],[1,0.5]];portConstraint=eastwest;" parent="f4DITkPFxF15eC7RWUfP-12" vertex="1">
          <mxGeometry y="66" width="480" height="24" as="geometry" />
        </mxCell>
        <mxCell id="oXdnSH9DWufPSlYSPhtB-8" value="-genre:String" style="text;strokeColor=none;fillColor=none;align=left;verticalAlign=top;spacingLeft=4;spacingRight=4;overflow=hidden;rotatable=0;points=[[0,0.5],[1,0.5]];portConstraint=eastwest;" parent="f4DITkPFxF15eC7RWUfP-12" vertex="1">
          <mxGeometry y="90" width="480" height="24" as="geometry" />
        </mxCell>
        <mxCell id="KiHyuANmDvBm40jnsKNg-42" value="-minutes:int" style="text;strokeColor=none;fillColor=none;align=left;verticalAlign=top;spacingLeft=4;spacingRight=4;overflow=hidden;rotatable=0;points=[[0,0.5],[1,0.5]];portConstraint=eastwest;" parent="f4DITkPFxF15eC7RWUfP-12" vertex="1">
          <mxGeometry y="114" width="480" height="24" as="geometry" />
        </mxCell>
        <mxCell id="KiHyuANmDvBm40jnsKNg-43" value="-seconds:int" style="text;strokeColor=none;fillColor=none;align=left;verticalAlign=top;spacingLeft=4;spacingRight=4;overflow=hidden;rotatable=0;points=[[0,0.5],[1,0.5]];portConstraint=eastwest;" parent="f4DITkPFxF15eC7RWUfP-12" vertex="1">
          <mxGeometry y="138" width="480" height="24" as="geometry" />
        </mxCell>
        <mxCell id="f4DITkPFxF15eC7RWUfP-14" value="" style="line;strokeWidth=1;fillColor=none;align=left;verticalAlign=middle;spacingTop=-1;spacingLeft=3;spacingRight=3;rotatable=0;labelPosition=right;points=[];portConstraint=eastwest;" parent="f4DITkPFxF15eC7RWUfP-12" vertex="1">
          <mxGeometry y="162" width="480" height="8" as="geometry" />
        </mxCell>
        <mxCell id="KiHyuANmDvBm40jnsKNg-46" value="+Song(title:String,nameArtist:String,date:String,minutes:int,seconds:int,num:int)" style="text;strokeColor=none;fillColor=none;align=left;verticalAlign=top;spacingLeft=4;spacingRight=4;overflow=hidden;rotatable=0;points=[[0,0.5],[1,0.5]];portConstraint=eastwest;" parent="f4DITkPFxF15eC7RWUfP-12" vertex="1">
          <mxGeometry y="170" width="480" height="20" as="geometry" />
        </mxCell>
        <mxCell id="KiHyuANmDvBm40jnsKNg-44" value="+Song()" style="text;strokeColor=none;fillColor=none;align=left;verticalAlign=top;spacingLeft=4;spacingRight=4;overflow=hidden;rotatable=0;points=[[0,0.5],[1,0.5]];portConstraint=eastwest;" parent="f4DITkPFxF15eC7RWUfP-12" vertex="1">
          <mxGeometry y="190" width="480" height="20" as="geometry" />
        </mxCell>
        <mxCell id="KiHyuANmDvBm40jnsKNg-47" value="+set*(*):void" style="text;strokeColor=none;fillColor=none;align=left;verticalAlign=top;spacingLeft=4;spacingRight=4;overflow=hidden;rotatable=0;points=[[0,0.5],[1,0.5]];portConstraint=eastwest;" parent="f4DITkPFxF15eC7RWUfP-12" vertex="1">
          <mxGeometry y="210" width="480" height="21" as="geometry" />
        </mxCell>
        <mxCell id="KiHyuANmDvBm40jnsKNg-48" value="+get*():*" style="text;strokeColor=none;fillColor=none;align=left;verticalAlign=top;spacingLeft=4;spacingRight=4;overflow=hidden;rotatable=0;points=[[0,0.5],[1,0.5]];portConstraint=eastwest;" parent="f4DITkPFxF15eC7RWUfP-12" vertex="1">
          <mxGeometry y="231" width="480" height="20" as="geometry" />
        </mxCell>
        <mxCell id="_6vL-Fmfz16tMaVCGUEi-19" value="+checkDuration(m:int,s:int):void" style="text;strokeColor=none;fillColor=none;align=left;verticalAlign=top;spacingLeft=4;spacingRight=4;overflow=hidden;rotatable=0;points=[[0,0.5],[1,0.5]];portConstraint=eastwest;" parent="f4DITkPFxF15eC7RWUfP-12" vertex="1">
          <mxGeometry y="251" width="480" height="20" as="geometry" />
        </mxCell>
        <mxCell id="KiHyuANmDvBm40jnsKNg-49" value="+showSong():String" style="text;strokeColor=none;fillColor=none;align=left;verticalAlign=top;spacingLeft=4;spacingRight=4;overflow=hidden;rotatable=0;points=[[0,0.5],[1,0.5]];portConstraint=eastwest;" parent="f4DITkPFxF15eC7RWUfP-12" vertex="1">
          <mxGeometry y="271" width="480" height="20" as="geometry" />
        </mxCell>
        <mxCell id="f4DITkPFxF15eC7RWUfP-16" value="&lt;&lt;enumeration&gt;&gt;&#xa;Genre" style="swimlane;fontStyle=0;childLayout=stackLayout;horizontal=1;startSize=26;fillColor=none;horizontalStack=0;resizeParent=1;resizeParentMax=0;resizeLast=0;collapsible=1;marginBottom=0;" parent="1" vertex="1">
          <mxGeometry x="1040" y="-220" width="140" height="130" as="geometry" />
        </mxCell>
        <mxCell id="f4DITkPFxF15eC7RWUfP-17" value="ROCK&#xa;HIPHOP&#xa;CLASIC&#xa;REGGAE&#xa;SALSA&#xa;METAL&#xa;" style="text;strokeColor=none;fillColor=none;align=left;verticalAlign=top;spacingLeft=4;spacingRight=4;overflow=hidden;rotatable=0;points=[[0,0.5],[1,0.5]];portConstraint=eastwest;" parent="f4DITkPFxF15eC7RWUfP-16" vertex="1">
          <mxGeometry y="26" width="140" height="104" as="geometry" />
        </mxCell>
        <mxCell id="YzxOvq2Jwp7MUWpBDMcE-1" style="edgeStyle=orthogonalEdgeStyle;rounded=0;orthogonalLoop=1;jettySize=auto;html=1;exitX=0.5;exitY=0;exitDx=0;exitDy=0;endArrow=open;endFill=0;entryX=0.502;entryY=1.05;entryDx=0;entryDy=0;entryPerimeter=0;" parent="1" source="f4DITkPFxF15eC7RWUfP-20" target="_6vL-Fmfz16tMaVCGUEi-19" edge="1">
          <mxGeometry relative="1" as="geometry">
            <mxPoint x="768" y="220" as="targetPoint" />
          </mxGeometry>
        </mxCell>
        <mxCell id="YzxOvq2Jwp7MUWpBDMcE-3" value="0..30" style="edgeLabel;html=1;align=center;verticalAlign=middle;resizable=0;points=[];" parent="YzxOvq2Jwp7MUWpBDMcE-1" vertex="1" connectable="0">
          <mxGeometry x="0.9032" y="-1" relative="1" as="geometry">
            <mxPoint x="14.41" as="offset" />
          </mxGeometry>
        </mxCell>
        <mxCell id="KiHyuANmDvBm40jnsKNg-50" value="songs" style="edgeLabel;html=1;align=center;verticalAlign=middle;resizable=0;points=[];" parent="YzxOvq2Jwp7MUWpBDMcE-1" vertex="1" connectable="0">
          <mxGeometry x="0.3036" y="-2" relative="1" as="geometry">
            <mxPoint x="19.91" y="-12.25" as="offset" />
          </mxGeometry>
        </mxCell>
        <mxCell id="f4DITkPFxF15eC7RWUfP-20" value="PlayList" style="swimlane;fontStyle=3;align=center;verticalAlign=top;childLayout=stackLayout;horizontal=1;startSize=26;horizontalStack=0;resizeParent=1;resizeParentMax=0;resizeLast=0;collapsible=1;marginBottom=0;" parent="1" vertex="1">
          <mxGeometry x="480" y="210" width="190" height="420" as="geometry" />
        </mxCell>
        <mxCell id="KiHyuANmDvBm40jnsKNg-16" value="-amountSongs:int" style="text;strokeColor=none;fillColor=none;align=left;verticalAlign=top;spacingLeft=4;spacingRight=4;overflow=hidden;rotatable=0;points=[[0,0.5],[1,0.5]];portConstraint=eastwest;" parent="f4DITkPFxF15eC7RWUfP-20" vertex="1">
          <mxGeometry y="26" width="190" height="24" as="geometry" />
        </mxCell>
        <mxCell id="f4DITkPFxF15eC7RWUfP-21" value="-name:String" style="text;strokeColor=none;fillColor=none;align=left;verticalAlign=top;spacingLeft=4;spacingRight=4;overflow=hidden;rotatable=0;points=[[0,0.5],[1,0.5]];portConstraint=eastwest;" parent="f4DITkPFxF15eC7RWUfP-20" vertex="1">
          <mxGeometry y="50" width="190" height="24" as="geometry" />
        </mxCell>
        <mxCell id="KiHyuANmDvBm40jnsKNg-13" value="-hours:int" style="text;strokeColor=none;fillColor=none;align=left;verticalAlign=top;spacingLeft=4;spacingRight=4;overflow=hidden;rotatable=0;points=[[0,0.5],[1,0.5]];portConstraint=eastwest;" parent="f4DITkPFxF15eC7RWUfP-20" vertex="1">
          <mxGeometry y="74" width="190" height="24" as="geometry" />
        </mxCell>
        <mxCell id="KiHyuANmDvBm40jnsKNg-14" value="-minutes:int" style="text;strokeColor=none;fillColor=none;align=left;verticalAlign=top;spacingLeft=4;spacingRight=4;overflow=hidden;rotatable=0;points=[[0,0.5],[1,0.5]];portConstraint=eastwest;" parent="f4DITkPFxF15eC7RWUfP-20" vertex="1">
          <mxGeometry y="98" width="190" height="24" as="geometry" />
        </mxCell>
        <mxCell id="KiHyuANmDvBm40jnsKNg-15" value="-seconds:int" style="text;strokeColor=none;fillColor=none;align=left;verticalAlign=top;spacingLeft=4;spacingRight=4;overflow=hidden;rotatable=0;points=[[0,0.5],[1,0.5]];portConstraint=eastwest;" parent="f4DITkPFxF15eC7RWUfP-20" vertex="1">
          <mxGeometry y="122" width="190" height="24" as="geometry" />
        </mxCell>
        <mxCell id="f4DITkPFxF15eC7RWUfP-22" value="" style="line;strokeWidth=1;fillColor=none;align=left;verticalAlign=middle;spacingTop=-1;spacingLeft=3;spacingRight=3;rotatable=0;labelPosition=right;points=[];portConstraint=eastwest;" parent="f4DITkPFxF15eC7RWUfP-20" vertex="1">
          <mxGeometry y="146" width="190" height="8" as="geometry" />
        </mxCell>
        <mxCell id="KiHyuANmDvBm40jnsKNg-18" value="+PlayList(name:String)" style="text;strokeColor=none;fillColor=none;align=left;verticalAlign=top;spacingLeft=4;spacingRight=4;overflow=hidden;rotatable=0;points=[[0,0.5],[1,0.5]];portConstraint=eastwest;" parent="f4DITkPFxF15eC7RWUfP-20" vertex="1">
          <mxGeometry y="154" width="190" height="26" as="geometry" />
        </mxCell>
        <mxCell id="KiHyuANmDvBm40jnsKNg-17" value="+PlayList()&#xa;" style="text;strokeColor=none;fillColor=none;align=left;verticalAlign=top;spacingLeft=4;spacingRight=4;overflow=hidden;rotatable=0;points=[[0,0.5],[1,0.5]];portConstraint=eastwest;" parent="f4DITkPFxF15eC7RWUfP-20" vertex="1">
          <mxGeometry y="180" width="190" height="20" as="geometry" />
        </mxCell>
        <mxCell id="KiHyuANmDvBm40jnsKNg-19" value="+set*(*):void" style="text;strokeColor=none;fillColor=none;align=left;verticalAlign=top;spacingLeft=4;spacingRight=4;overflow=hidden;rotatable=0;points=[[0,0.5],[1,0.5]];portConstraint=eastwest;" parent="f4DITkPFxF15eC7RWUfP-20" vertex="1">
          <mxGeometry y="200" width="190" height="20" as="geometry" />
        </mxCell>
        <mxCell id="f4DITkPFxF15eC7RWUfP-23" value="+get*():*" style="text;strokeColor=none;fillColor=none;align=left;verticalAlign=top;spacingLeft=4;spacingRight=4;overflow=hidden;rotatable=0;points=[[0,0.5],[1,0.5]];portConstraint=eastwest;" parent="f4DITkPFxF15eC7RWUfP-20" vertex="1">
          <mxGeometry y="220" width="190" height="30" as="geometry" />
        </mxCell>
        <mxCell id="oXdnSH9DWufPSlYSPhtB-9" value="+getGenres[]:String" style="text;strokeColor=none;fillColor=none;align=left;verticalAlign=top;spacingLeft=4;spacingRight=4;overflow=hidden;rotatable=0;points=[[0,0.5],[1,0.5]];portConstraint=eastwest;" parent="f4DITkPFxF15eC7RWUfP-20" vertex="1">
          <mxGeometry y="250" width="190" height="30" as="geometry" />
        </mxCell>
        <mxCell id="oXdnSH9DWufPSlYSPhtB-10" value="+setgenres(genre:String):void" style="text;strokeColor=none;fillColor=none;align=left;verticalAlign=top;spacingLeft=4;spacingRight=4;overflow=hidden;rotatable=0;points=[[0,0.5],[1,0.5]];portConstraint=eastwest;" parent="f4DITkPFxF15eC7RWUfP-20" vertex="1">
          <mxGeometry y="280" width="190" height="30" as="geometry" />
        </mxCell>
        <mxCell id="KiHyuANmDvBm40jnsKNg-21" value="+addSong(Song song):boolean" style="text;strokeColor=none;fillColor=none;align=left;verticalAlign=top;spacingLeft=4;spacingRight=4;overflow=hidden;rotatable=0;points=[[0,0.5],[1,0.5]];portConstraint=eastwest;" parent="f4DITkPFxF15eC7RWUfP-20" vertex="1">
          <mxGeometry y="310" width="190" height="30" as="geometry" />
        </mxCell>
        <mxCell id="KiHyuANmDvBm40jnsKNg-22" value="+updateGenre(String genre):void" style="text;strokeColor=none;fillColor=none;align=left;verticalAlign=top;spacingLeft=4;spacingRight=4;overflow=hidden;rotatable=0;points=[[0,0.5],[1,0.5]];portConstraint=eastwest;" parent="f4DITkPFxF15eC7RWUfP-20" vertex="1">
          <mxGeometry y="340" width="190" height="30" as="geometry" />
        </mxCell>
        <mxCell id="KiHyuANmDvBm40jnsKNg-24" value="+updateDuration(int m,int s):void" style="text;strokeColor=none;fillColor=none;align=left;verticalAlign=top;spacingLeft=4;spacingRight=4;overflow=hidden;rotatable=0;points=[[0,0.5],[1,0.5]];portConstraint=eastwest;" parent="f4DITkPFxF15eC7RWUfP-20" vertex="1">
          <mxGeometry y="370" width="190" height="30" as="geometry" />
        </mxCell>
        <mxCell id="KiHyuANmDvBm40jnsKNg-25" value="+showInfo():String" style="text;strokeColor=none;fillColor=none;align=left;verticalAlign=top;spacingLeft=4;spacingRight=4;overflow=hidden;rotatable=0;points=[[0,0.5],[1,0.5]];portConstraint=eastwest;" parent="f4DITkPFxF15eC7RWUfP-20" vertex="1">
          <mxGeometry y="400" width="190" height="20" as="geometry" />
        </mxCell>
        <mxCell id="f4DITkPFxF15eC7RWUfP-27" value="MCS" style="swimlane;fontStyle=1;align=center;verticalAlign=top;childLayout=stackLayout;horizontal=1;startSize=26;horizontalStack=0;resizeParent=1;resizeParentMax=0;resizeLast=0;collapsible=1;marginBottom=0;" parent="1" vertex="1">
          <mxGeometry x="-750" y="-390" width="580" height="928" as="geometry" />
        </mxCell>
        <mxCell id="f4DITkPFxF15eC7RWUfP-28" value="-MAX_USERS = 10" style="text;strokeColor=none;fillColor=none;align=left;verticalAlign=top;spacingLeft=4;spacingRight=4;overflow=hidden;rotatable=0;points=[[0,0.5],[1,0.5]];portConstraint=eastwest;" parent="f4DITkPFxF15eC7RWUfP-27" vertex="1">
          <mxGeometry y="26" width="580" height="24" as="geometry" />
        </mxCell>
        <mxCell id="oXdnSH9DWufPSlYSPhtB-2" value="-MAX_SONGS =  30" style="text;strokeColor=none;fillColor=none;align=left;verticalAlign=top;spacingLeft=4;spacingRight=4;overflow=hidden;rotatable=0;points=[[0,0.5],[1,0.5]];portConstraint=eastwest;" parent="f4DITkPFxF15eC7RWUfP-27" vertex="1">
          <mxGeometry y="50" width="580" height="24" as="geometry" />
        </mxCell>
        <mxCell id="oXdnSH9DWufPSlYSPhtB-3" value="-MAX_PLAYLIST = 20" style="text;strokeColor=none;fillColor=none;align=left;verticalAlign=top;spacingLeft=4;spacingRight=4;overflow=hidden;rotatable=0;points=[[0,0.5],[1,0.5]];portConstraint=eastwest;" parent="f4DITkPFxF15eC7RWUfP-27" vertex="1">
          <mxGeometry y="74" width="580" height="24" as="geometry" />
        </mxCell>
        <mxCell id="oXdnSH9DWufPSlYSPhtB-5" value="-nUsers[] : User" style="text;strokeColor=none;fillColor=none;align=left;verticalAlign=top;spacingLeft=4;spacingRight=4;overflow=hidden;rotatable=0;points=[[0,0.5],[1,0.5]];portConstraint=eastwest;" parent="f4DITkPFxF15eC7RWUfP-27" vertex="1">
          <mxGeometry y="98" width="580" height="24" as="geometry" />
        </mxCell>
        <mxCell id="oXdnSH9DWufPSlYSPhtB-6" value="-nSongs[] : Songs" style="text;strokeColor=none;fillColor=none;align=left;verticalAlign=top;spacingLeft=4;spacingRight=4;overflow=hidden;rotatable=0;points=[[0,0.5],[1,0.5]];portConstraint=eastwest;" parent="f4DITkPFxF15eC7RWUfP-27" vertex="1">
          <mxGeometry y="122" width="580" height="24" as="geometry" />
        </mxCell>
        <mxCell id="oXdnSH9DWufPSlYSPhtB-7" value="-nPlayList[] : PlayList" style="text;strokeColor=none;fillColor=none;align=left;verticalAlign=top;spacingLeft=4;spacingRight=4;overflow=hidden;rotatable=0;points=[[0,0.5],[1,0.5]];portConstraint=eastwest;" parent="f4DITkPFxF15eC7RWUfP-27" vertex="1">
          <mxGeometry y="146" width="580" height="24" as="geometry" />
        </mxCell>
        <mxCell id="f4DITkPFxF15eC7RWUfP-29" value="" style="line;strokeWidth=1;fillColor=none;align=left;verticalAlign=middle;spacingTop=-1;spacingLeft=3;spacingRight=3;rotatable=0;labelPosition=right;points=[];portConstraint=eastwest;" parent="f4DITkPFxF15eC7RWUfP-27" vertex="1">
          <mxGeometry y="170" width="580" height="8" as="geometry" />
        </mxCell>
        <mxCell id="KiHyuANmDvBm40jnsKNg-52" value="+MCS()" style="text;strokeColor=none;fillColor=none;align=left;verticalAlign=top;spacingLeft=4;spacingRight=4;overflow=hidden;rotatable=0;points=[[0,0.5],[1,0.5]];portConstraint=eastwest;" parent="f4DITkPFxF15eC7RWUfP-27" vertex="1">
          <mxGeometry y="178" width="580" height="30" as="geometry" />
        </mxCell>
        <mxCell id="KiHyuANmDvBm40jnsKNg-53" value="+addUser(name:String,age:byte,password:String):String" style="text;strokeColor=none;fillColor=none;align=left;verticalAlign=top;spacingLeft=4;spacingRight=4;overflow=hidden;rotatable=0;points=[[0,0.5],[1,0.5]];portConstraint=eastwest;" parent="f4DITkPFxF15eC7RWUfP-27" vertex="1">
          <mxGeometry y="208" width="580" height="30" as="geometry" />
        </mxCell>
        <mxCell id="_6vL-Fmfz16tMaVCGUEi-9" value="+removeSpaces(s:String):String" style="text;whiteSpace=wrap;html=1;" parent="f4DITkPFxF15eC7RWUfP-27" vertex="1">
          <mxGeometry y="238" width="580" height="30" as="geometry" />
        </mxCell>
        <mxCell id="KiHyuANmDvBm40jnsKNg-55" value="+displayUsers():String" style="text;strokeColor=none;fillColor=none;align=left;verticalAlign=top;spacingLeft=4;spacingRight=4;overflow=hidden;rotatable=0;points=[[0,0.5],[1,0.5]];portConstraint=eastwest;" parent="f4DITkPFxF15eC7RWUfP-27" vertex="1">
          <mxGeometry y="268" width="580" height="30" as="geometry" />
        </mxCell>
        <mxCell id="KiHyuANmDvBm40jnsKNg-56" value="+addSong(user:String,title:String,artistName:String,releaseDate:String,minutes:int,seconds:int,num:int)" style="text;strokeColor=none;fillColor=none;align=left;verticalAlign=top;spacingLeft=4;spacingRight=4;overflow=hidden;rotatable=0;points=[[0,0.5],[1,0.5]];portConstraint=eastwest;" parent="f4DITkPFxF15eC7RWUfP-27" vertex="1">
          <mxGeometry y="298" width="580" height="30" as="geometry" />
        </mxCell>
        <mxCell id="KiHyuANmDvBm40jnsKNg-57" value="+displayPoolSongs():String" style="text;strokeColor=none;fillColor=none;align=left;verticalAlign=top;spacingLeft=4;spacingRight=4;overflow=hidden;rotatable=0;points=[[0,0.5],[1,0.5]];portConstraint=eastwest;" parent="f4DITkPFxF15eC7RWUfP-27" vertex="1">
          <mxGeometry y="328" width="580" height="30" as="geometry" />
        </mxCell>
        <mxCell id="KiHyuANmDvBm40jnsKNg-58" value="+addPlayList(name:String):String" style="text;strokeColor=none;fillColor=none;align=left;verticalAlign=top;spacingLeft=4;spacingRight=4;overflow=hidden;rotatable=0;points=[[0,0.5],[1,0.5]];portConstraint=eastwest;" parent="f4DITkPFxF15eC7RWUfP-27" vertex="1">
          <mxGeometry y="358" width="580" height="30" as="geometry" />
        </mxCell>
        <mxCell id="KiHyuANmDvBm40jnsKNg-59" value="+addPlayList(name:String,proprietor[]:String):String" style="text;strokeColor=none;fillColor=none;align=left;verticalAlign=top;spacingLeft=4;spacingRight=4;overflow=hidden;rotatable=0;points=[[0,0.5],[1,0.5]];portConstraint=eastwest;" parent="f4DITkPFxF15eC7RWUfP-27" vertex="1">
          <mxGeometry y="388" width="580" height="30" as="geometry" />
        </mxCell>
        <mxCell id="KiHyuANmDvBm40jnsKNg-60" value="+addPlayList(name:String,proprietor:String):String" style="text;strokeColor=none;fillColor=none;align=left;verticalAlign=top;spacingLeft=4;spacingRight=4;overflow=hidden;rotatable=0;points=[[0,0.5],[1,0.5]];portConstraint=eastwest;" parent="f4DITkPFxF15eC7RWUfP-27" vertex="1">
          <mxGeometry y="418" width="580" height="30" as="geometry" />
        </mxCell>
        <mxCell id="KiHyuANmDvBm40jnsKNg-61" value="+addSongToPlayList(songIn:int,playListIn:int):String" style="text;strokeColor=none;fillColor=none;align=left;verticalAlign=top;spacingLeft=4;spacingRight=4;overflow=hidden;rotatable=0;points=[[0,0.5],[1,0.5]];portConstraint=eastwest;" parent="f4DITkPFxF15eC7RWUfP-27" vertex="1">
          <mxGeometry y="448" width="580" height="30" as="geometry" />
        </mxCell>
        <mxCell id="KiHyuANmDvBm40jnsKNg-62" value="+displayPlayList():String" style="text;whiteSpace=wrap;html=1;" parent="f4DITkPFxF15eC7RWUfP-27" vertex="1">
          <mxGeometry y="478" width="580" height="30" as="geometry" />
        </mxCell>
        <mxCell id="_6vL-Fmfz16tMaVCGUEi-1" value="+displayPlayList():String" style="text;whiteSpace=wrap;html=1;" parent="f4DITkPFxF15eC7RWUfP-27" vertex="1">
          <mxGeometry y="508" width="580" height="30" as="geometry" />
        </mxCell>
        <mxCell id="_6vL-Fmfz16tMaVCGUEi-4" value="+displayPublicPlayList():String" style="text;whiteSpace=wrap;html=1;" parent="f4DITkPFxF15eC7RWUfP-27" vertex="1">
          <mxGeometry y="538" width="580" height="30" as="geometry" />
        </mxCell>
        <mxCell id="_6vL-Fmfz16tMaVCGUEi-5" value="+qualifyPlayList(in:int,score:double):String" style="text;whiteSpace=wrap;html=1;" parent="f4DITkPFxF15eC7RWUfP-27" vertex="1">
          <mxGeometry y="568" width="580" height="30" as="geometry" />
        </mxCell>
        <mxCell id="_6vL-Fmfz16tMaVCGUEi-6" value="+displayGenres():String" style="text;whiteSpace=wrap;html=1;" parent="f4DITkPFxF15eC7RWUfP-27" vertex="1">
          <mxGeometry y="598" width="580" height="30" as="geometry" />
        </mxCell>
        <mxCell id="_6vL-Fmfz16tMaVCGUEi-8" value="+displaySongsNames():String" style="text;whiteSpace=wrap;html=1;" parent="f4DITkPFxF15eC7RWUfP-27" vertex="1">
          <mxGeometry y="628" width="580" height="30" as="geometry" />
        </mxCell>
        <mxCell id="_6vL-Fmfz16tMaVCGUEi-10" value="+displayPlayListNames():String" style="text;whiteSpace=wrap;html=1;" parent="f4DITkPFxF15eC7RWUfP-27" vertex="1">
          <mxGeometry y="658" width="580" height="30" as="geometry" />
        </mxCell>
        <mxCell id="_6vL-Fmfz16tMaVCGUEi-11" value="+quantityPlaylist():int" style="text;whiteSpace=wrap;html=1;" parent="f4DITkPFxF15eC7RWUfP-27" vertex="1">
          <mxGeometry y="688" width="580" height="30" as="geometry" />
        </mxCell>
        <mxCell id="_6vL-Fmfz16tMaVCGUEi-12" value="+quantityPublicPlaylist():int" style="text;whiteSpace=wrap;html=1;" parent="f4DITkPFxF15eC7RWUfP-27" vertex="1">
          <mxGeometry y="718" width="580" height="30" as="geometry" />
        </mxCell>
        <mxCell id="_6vL-Fmfz16tMaVCGUEi-13" value="+quantitySongs():int" style="text;whiteSpace=wrap;html=1;" parent="f4DITkPFxF15eC7RWUfP-27" vertex="1">
          <mxGeometry y="748" width="580" height="30" as="geometry" />
        </mxCell>
        <mxCell id="_6vL-Fmfz16tMaVCGUEi-14" value="+amountUsers():int" style="text;whiteSpace=wrap;html=1;" parent="f4DITkPFxF15eC7RWUfP-27" vertex="1">
          <mxGeometry y="778" width="580" height="30" as="geometry" />
        </mxCell>
        <mxCell id="_6vL-Fmfz16tMaVCGUEi-15" value="+isNullPublicPlayList():boolean" style="text;whiteSpace=wrap;html=1;" parent="f4DITkPFxF15eC7RWUfP-27" vertex="1">
          <mxGeometry y="808" width="580" height="30" as="geometry" />
        </mxCell>
        <mxCell id="_6vL-Fmfz16tMaVCGUEi-16" value="+isNullPlayList():boolean" style="text;whiteSpace=wrap;html=1;" parent="f4DITkPFxF15eC7RWUfP-27" vertex="1">
          <mxGeometry y="838" width="580" height="30" as="geometry" />
        </mxCell>
        <mxCell id="_6vL-Fmfz16tMaVCGUEi-17" value="+isNullUser():boolean" style="text;whiteSpace=wrap;html=1;" parent="f4DITkPFxF15eC7RWUfP-27" vertex="1">
          <mxGeometry y="868" width="580" height="30" as="geometry" />
        </mxCell>
        <mxCell id="_6vL-Fmfz16tMaVCGUEi-18" value="+isNullPool():boolean" style="text;whiteSpace=wrap;html=1;" parent="f4DITkPFxF15eC7RWUfP-27" vertex="1">
          <mxGeometry y="898" width="580" height="30" as="geometry" />
        </mxCell>
        <mxCell id="KiHyuANmDvBm40jnsKNg-26" style="edgeStyle=orthogonalEdgeStyle;rounded=0;orthogonalLoop=1;jettySize=auto;html=1;exitX=0.5;exitY=0;exitDx=0;exitDy=0;entryX=0;entryY=0.5;entryDx=0;entryDy=0;endArrow=block;endFill=0;" parent="1" source="f4DITkPFxF15eC7RWUfP-31" target="KiHyuANmDvBm40jnsKNg-18" edge="1">
          <mxGeometry relative="1" as="geometry" />
        </mxCell>
        <mxCell id="f4DITkPFxF15eC7RWUfP-31" value="PrivatePlayList" style="swimlane;fontStyle=1;align=center;verticalAlign=top;childLayout=stackLayout;horizontal=1;startSize=26;horizontalStack=0;resizeParent=1;resizeParentMax=0;resizeLast=0;collapsible=1;marginBottom=0;" parent="1" vertex="1">
          <mxGeometry x="-80" y="730" width="280" height="140" as="geometry" />
        </mxCell>
        <mxCell id="f4DITkPFxF15eC7RWUfP-32" value="-proprietor:String" style="text;strokeColor=none;fillColor=none;align=left;verticalAlign=top;spacingLeft=4;spacingRight=4;overflow=hidden;rotatable=0;points=[[0,0.5],[1,0.5]];portConstraint=eastwest;" parent="f4DITkPFxF15eC7RWUfP-31" vertex="1">
          <mxGeometry y="26" width="280" height="24" as="geometry" />
        </mxCell>
        <mxCell id="f4DITkPFxF15eC7RWUfP-33" value="" style="line;strokeWidth=1;fillColor=none;align=left;verticalAlign=middle;spacingTop=-1;spacingLeft=3;spacingRight=3;rotatable=0;labelPosition=right;points=[];portConstraint=eastwest;" parent="f4DITkPFxF15eC7RWUfP-31" vertex="1">
          <mxGeometry y="50" width="280" height="8" as="geometry" />
        </mxCell>
        <mxCell id="f4DITkPFxF15eC7RWUfP-34" value="+PrivatePlayList()&#xa;+PrivatePlayList(name:String,proprietor: String)&#xa;+set*(*):void&#xa;+get*():*" style="text;strokeColor=none;fillColor=none;align=left;verticalAlign=top;spacingLeft=4;spacingRight=4;overflow=hidden;rotatable=0;points=[[0,0.5],[1,0.5]];portConstraint=eastwest;fontStyle=0" parent="f4DITkPFxF15eC7RWUfP-31" vertex="1">
          <mxGeometry y="58" width="280" height="62" as="geometry" />
        </mxCell>
        <mxCell id="KiHyuANmDvBm40jnsKNg-29" value="+showInfo():String" style="text;strokeColor=none;fillColor=none;align=left;verticalAlign=top;spacingLeft=4;spacingRight=4;overflow=hidden;rotatable=0;points=[[0,0.5],[1,0.5]];portConstraint=eastwest;" parent="f4DITkPFxF15eC7RWUfP-31" vertex="1">
          <mxGeometry y="120" width="280" height="20" as="geometry" />
        </mxCell>
        <mxCell id="KiHyuANmDvBm40jnsKNg-27" style="edgeStyle=orthogonalEdgeStyle;rounded=0;orthogonalLoop=1;jettySize=auto;html=1;exitX=0.5;exitY=0;exitDx=0;exitDy=0;entryX=0;entryY=0.5;entryDx=0;entryDy=0;endArrow=block;endFill=0;" parent="1" source="f4DITkPFxF15eC7RWUfP-35" target="KiHyuANmDvBm40jnsKNg-22" edge="1">
          <mxGeometry relative="1" as="geometry" />
        </mxCell>
        <mxCell id="f4DITkPFxF15eC7RWUfP-35" value="PublicPlayList" style="swimlane;fontStyle=1;align=center;verticalAlign=top;childLayout=stackLayout;horizontal=1;startSize=26;horizontalStack=0;resizeParent=1;resizeParentMax=0;resizeLast=0;collapsible=1;marginBottom=0;" parent="1" vertex="1">
          <mxGeometry x="250" y="730" width="270" height="160" as="geometry" />
        </mxCell>
        <mxCell id="f4DITkPFxF15eC7RWUfP-36" value="-score:double" style="text;strokeColor=none;fillColor=none;align=left;verticalAlign=top;spacingLeft=4;spacingRight=4;overflow=hidden;rotatable=0;points=[[0,0.5],[1,0.5]];portConstraint=eastwest;" parent="f4DITkPFxF15eC7RWUfP-35" vertex="1">
          <mxGeometry y="26" width="270" height="24" as="geometry" />
        </mxCell>
        <mxCell id="f4DITkPFxF15eC7RWUfP-37" value="" style="line;strokeWidth=1;fillColor=none;align=left;verticalAlign=middle;spacingTop=-1;spacingLeft=3;spacingRight=3;rotatable=0;labelPosition=right;points=[];portConstraint=eastwest;" parent="f4DITkPFxF15eC7RWUfP-35" vertex="1">
          <mxGeometry y="50" width="270" height="8" as="geometry" />
        </mxCell>
        <mxCell id="f4DITkPFxF15eC7RWUfP-38" value="+PublicPlayList()&#xa;+PublicPlayList(name:String,score:double)&#xa;+set(score:double):void&#xa;+get():double" style="text;strokeColor=none;fillColor=none;align=left;verticalAlign=top;spacingLeft=4;spacingRight=4;overflow=hidden;rotatable=0;points=[[0,0.5],[1,0.5]];portConstraint=eastwest;" parent="f4DITkPFxF15eC7RWUfP-35" vertex="1">
          <mxGeometry y="58" width="270" height="62" as="geometry" />
        </mxCell>
        <mxCell id="KiHyuANmDvBm40jnsKNg-30" value="+averageScore(scoreX:double):double" style="text;strokeColor=none;fillColor=none;align=left;verticalAlign=top;spacingLeft=4;spacingRight=4;overflow=hidden;rotatable=0;points=[[0,0.5],[1,0.5]];portConstraint=eastwest;" parent="f4DITkPFxF15eC7RWUfP-35" vertex="1">
          <mxGeometry y="120" width="270" height="20" as="geometry" />
        </mxCell>
        <mxCell id="KiHyuANmDvBm40jnsKNg-32" value="+showInfo():String" style="text;strokeColor=none;fillColor=none;align=left;verticalAlign=top;spacingLeft=4;spacingRight=4;overflow=hidden;rotatable=0;points=[[0,0.5],[1,0.5]];portConstraint=eastwest;" parent="f4DITkPFxF15eC7RWUfP-35" vertex="1">
          <mxGeometry y="140" width="270" height="20" as="geometry" />
        </mxCell>
        <mxCell id="f4DITkPFxF15eC7RWUfP-45" value="" style="endArrow=open;html=1;entryX=0.557;entryY=-0.038;entryDx=0;entryDy=0;entryPerimeter=0;exitX=1;exitY=0.5;exitDx=0;exitDy=0;endFill=0;rounded=0;" parent="1" source="KiHyuANmDvBm40jnsKNg-40" target="f4DITkPFxF15eC7RWUfP-16" edge="1">
          <mxGeometry width="50" height="50" relative="1" as="geometry">
            <mxPoint x="910" y="160" as="sourcePoint" />
            <mxPoint x="930" y="160" as="targetPoint" />
            <Array as="points">
              <mxPoint x="1118" y="-290" />
            </Array>
          </mxGeometry>
        </mxCell>
        <mxCell id="f4DITkPFxF15eC7RWUfP-46" value="genre" style="edgeLabel;html=1;align=center;verticalAlign=middle;resizable=0;points=[];" parent="f4DITkPFxF15eC7RWUfP-45" vertex="1" connectable="0">
          <mxGeometry x="-0.2152" y="2" relative="1" as="geometry">
            <mxPoint x="8" y="-11" as="offset" />
          </mxGeometry>
        </mxCell>
        <mxCell id="f4DITkPFxF15eC7RWUfP-47" value="" style="endArrow=open;html=1;entryX=0.536;entryY=1.019;entryDx=0;entryDy=0;entryPerimeter=0;exitX=1;exitY=0.5;exitDx=0;exitDy=0;endFill=0;rounded=0;" parent="1" source="KiHyuANmDvBm40jnsKNg-14" target="f4DITkPFxF15eC7RWUfP-17" edge="1">
          <mxGeometry width="50" height="50" relative="1" as="geometry">
            <mxPoint x="990" y="615" as="sourcePoint" />
            <mxPoint x="900" y="480" as="targetPoint" />
            <Array as="points">
              <mxPoint x="1110" y="310" />
            </Array>
          </mxGeometry>
        </mxCell>
        <mxCell id="f4DITkPFxF15eC7RWUfP-48" value="genres" style="edgeLabel;html=1;align=center;verticalAlign=middle;resizable=0;points=[];" parent="f4DITkPFxF15eC7RWUfP-47" vertex="1" connectable="0">
          <mxGeometry x="0.1954" y="-3" relative="1" as="geometry">
            <mxPoint x="-11.94" y="5.99" as="offset" />
          </mxGeometry>
        </mxCell>
        <mxCell id="f4DITkPFxF15eC7RWUfP-49" value="0..7" style="edgeLabel;html=1;align=center;verticalAlign=middle;resizable=0;points=[];" parent="f4DITkPFxF15eC7RWUfP-47" vertex="1" connectable="0">
          <mxGeometry x="0.8938" y="-3" relative="1" as="geometry">
            <mxPoint x="13.36" y="1" as="offset" />
          </mxGeometry>
        </mxCell>
        <mxCell id="f4DITkPFxF15eC7RWUfP-50" value="" style="endArrow=open;html=1;entryX=1.012;entryY=1.047;entryDx=0;entryDy=0;entryPerimeter=0;endFill=0;exitX=0.847;exitY=1.117;exitDx=0;exitDy=0;exitPerimeter=0;" parent="1" source="_6vL-Fmfz16tMaVCGUEi-18" target="f4DITkPFxF15eC7RWUfP-2" edge="1">
          <mxGeometry width="50" height="50" relative="1" as="geometry">
            <mxPoint x="-210" y="290" as="sourcePoint" />
            <mxPoint x="180" y="300" as="targetPoint" />
            <Array as="points">
              <mxPoint x="-270" y="640" />
            </Array>
          </mxGeometry>
        </mxCell>
        <mxCell id="f4DITkPFxF15eC7RWUfP-51" value="users" style="edgeLabel;html=1;align=center;verticalAlign=middle;resizable=0;points=[];" parent="f4DITkPFxF15eC7RWUfP-50" vertex="1" connectable="0">
          <mxGeometry x="-0.3814" y="3" relative="1" as="geometry">
            <mxPoint x="10.03" y="-11.69" as="offset" />
          </mxGeometry>
        </mxCell>
        <mxCell id="f4DITkPFxF15eC7RWUfP-52" value="0..10" style="edgeLabel;html=1;align=center;verticalAlign=middle;resizable=0;points=[];" parent="f4DITkPFxF15eC7RWUfP-50" vertex="1" connectable="0">
          <mxGeometry x="0.7967" y="-3" relative="1" as="geometry">
            <mxPoint y="-10.11" as="offset" />
          </mxGeometry>
        </mxCell>
        <mxCell id="f4DITkPFxF15eC7RWUfP-53" value="" style="endArrow=open;html=1;endFill=0;entryX=-0.007;entryY=0.716;entryDx=0;entryDy=0;entryPerimeter=0;exitX=1;exitY=0.5;exitDx=0;exitDy=0;rounded=0;" parent="1" source="KiHyuANmDvBm40jnsKNg-55" target="KiHyuANmDvBm40jnsKNg-42" edge="1">
          <mxGeometry width="50" height="50" relative="1" as="geometry">
            <mxPoint x="420" y="340" as="sourcePoint" />
            <mxPoint x="440" y="150" as="targetPoint" />
            <Array as="points" />
          </mxGeometry>
        </mxCell>
        <mxCell id="f4DITkPFxF15eC7RWUfP-54" value="poolSongs" style="edgeLabel;html=1;align=center;verticalAlign=middle;resizable=0;points=[];" parent="f4DITkPFxF15eC7RWUfP-53" vertex="1" connectable="0">
          <mxGeometry x="-0.5083" y="2" relative="1" as="geometry">
            <mxPoint x="10.94" y="11.23" as="offset" />
          </mxGeometry>
        </mxCell>
        <mxCell id="f4DITkPFxF15eC7RWUfP-55" value="0..30" style="edgeLabel;html=1;align=center;verticalAlign=middle;resizable=0;points=[];" parent="f4DITkPFxF15eC7RWUfP-53" vertex="1" connectable="0">
          <mxGeometry x="0.8801" y="-1" relative="1" as="geometry">
            <mxPoint x="-7" y="12.88" as="offset" />
          </mxGeometry>
        </mxCell>
        <mxCell id="KiHyuANmDvBm40jnsKNg-28" style="edgeStyle=orthogonalEdgeStyle;rounded=0;orthogonalLoop=1;jettySize=auto;html=1;exitX=0.5;exitY=0;exitDx=0;exitDy=0;entryX=1;entryY=0.5;entryDx=0;entryDy=0;endArrow=block;endFill=0;" parent="1" source="f4DITkPFxF15eC7RWUfP-56" target="KiHyuANmDvBm40jnsKNg-21" edge="1">
          <mxGeometry relative="1" as="geometry" />
        </mxCell>
        <mxCell id="f4DITkPFxF15eC7RWUfP-56" value="RestrictPlayList" style="swimlane;fontStyle=1;align=center;verticalAlign=top;childLayout=stackLayout;horizontal=1;startSize=26;horizontalStack=0;resizeParent=1;resizeParentMax=0;resizeLast=0;collapsible=1;marginBottom=0;" parent="1" vertex="1">
          <mxGeometry x="670" y="731" width="290" height="159" as="geometry" />
        </mxCell>
        <mxCell id="f4DITkPFxF15eC7RWUfP-57" value="-proprietors []:String" style="text;strokeColor=none;fillColor=none;align=left;verticalAlign=top;spacingLeft=4;spacingRight=4;overflow=hidden;rotatable=0;points=[[0,0.5],[1,0.5]];portConstraint=eastwest;" parent="f4DITkPFxF15eC7RWUfP-56" vertex="1">
          <mxGeometry y="26" width="290" height="24" as="geometry" />
        </mxCell>
        <mxCell id="f4DITkPFxF15eC7RWUfP-58" value="" style="line;strokeWidth=1;fillColor=none;align=left;verticalAlign=middle;spacingTop=-1;spacingLeft=3;spacingRight=3;rotatable=0;labelPosition=right;points=[];portConstraint=eastwest;" parent="f4DITkPFxF15eC7RWUfP-56" vertex="1">
          <mxGeometry y="50" width="290" height="8" as="geometry" />
        </mxCell>
        <mxCell id="KiHyuANmDvBm40jnsKNg-34" value="+RestrictPlayList(name:String, proprietors[]:String)" style="text;strokeColor=none;fillColor=none;align=left;verticalAlign=top;spacingLeft=4;spacingRight=4;overflow=hidden;rotatable=0;points=[[0,0.5],[1,0.5]];portConstraint=eastwest;" parent="f4DITkPFxF15eC7RWUfP-56" vertex="1">
          <mxGeometry y="58" width="290" height="20" as="geometry" />
        </mxCell>
        <mxCell id="KiHyuANmDvBm40jnsKNg-33" value="+RestrictPlayList()" style="text;strokeColor=none;fillColor=none;align=left;verticalAlign=top;spacingLeft=4;spacingRight=4;overflow=hidden;rotatable=0;points=[[0,0.5],[1,0.5]];portConstraint=eastwest;" parent="f4DITkPFxF15eC7RWUfP-56" vertex="1">
          <mxGeometry y="78" width="290" height="20" as="geometry" />
        </mxCell>
        <mxCell id="KiHyuANmDvBm40jnsKNg-36" value="+setProprieters(proprietors[]:String):void" style="text;strokeColor=none;fillColor=none;align=left;verticalAlign=top;spacingLeft=4;spacingRight=4;overflow=hidden;rotatable=0;points=[[0,0.5],[1,0.5]];portConstraint=eastwest;" parent="f4DITkPFxF15eC7RWUfP-56" vertex="1">
          <mxGeometry y="98" width="290" height="21" as="geometry" />
        </mxCell>
        <mxCell id="KiHyuANmDvBm40jnsKNg-37" value="+get():String" style="text;strokeColor=none;fillColor=none;align=left;verticalAlign=top;spacingLeft=4;spacingRight=4;overflow=hidden;rotatable=0;points=[[0,0.5],[1,0.5]];portConstraint=eastwest;" parent="f4DITkPFxF15eC7RWUfP-56" vertex="1">
          <mxGeometry y="119" width="290" height="20" as="geometry" />
        </mxCell>
        <mxCell id="KiHyuANmDvBm40jnsKNg-38" value="+showInfo():String" style="text;strokeColor=none;fillColor=none;align=left;verticalAlign=top;spacingLeft=4;spacingRight=4;overflow=hidden;rotatable=0;points=[[0,0.5],[1,0.5]];portConstraint=eastwest;" parent="f4DITkPFxF15eC7RWUfP-56" vertex="1">
          <mxGeometry y="139" width="290" height="20" as="geometry" />
        </mxCell>
        <mxCell id="KiHyuANmDvBm40jnsKNg-65" style="edgeStyle=orthogonalEdgeStyle;rounded=0;orthogonalLoop=1;jettySize=auto;html=1;entryX=0;entryY=0.5;entryDx=0;entryDy=0;endArrow=open;endFill=0;exitX=1;exitY=0.25;exitDx=0;exitDy=0;" parent="1" source="_6vL-Fmfz16tMaVCGUEi-5" target="KiHyuANmDvBm40jnsKNg-13" edge="1">
          <mxGeometry relative="1" as="geometry">
            <mxPoint x="90" y="640" as="sourcePoint" />
          </mxGeometry>
        </mxCell>
        <mxCell id="KiHyuANmDvBm40jnsKNg-66" value="playList" style="edgeLabel;html=1;align=center;verticalAlign=middle;resizable=0;points=[];" parent="KiHyuANmDvBm40jnsKNg-65" vertex="1" connectable="0">
          <mxGeometry x="-0.0915" y="-3" relative="1" as="geometry">
            <mxPoint x="-13.97" y="9" as="offset" />
          </mxGeometry>
        </mxCell>
        <mxCell id="KiHyuANmDvBm40jnsKNg-67" value="0..20" style="edgeLabel;html=1;align=center;verticalAlign=middle;resizable=0;points=[];" parent="KiHyuANmDvBm40jnsKNg-65" vertex="1" connectable="0">
          <mxGeometry x="0.8561" y="-1" relative="1" as="geometry">
            <mxPoint x="7.76" y="7" as="offset" />
          </mxGeometry>
        </mxCell>
        <mxCell id="_6vL-Fmfz16tMaVCGUEi-21" value="model" style="text;html=1;align=center;verticalAlign=middle;resizable=0;points=[];autosize=1;" parent="1" vertex="1">
          <mxGeometry x="-820" y="-420" width="50" height="20" as="geometry" />
        </mxCell>
        <mxCell id="_6vL-Fmfz16tMaVCGUEi-22" value="Menu" style="swimlane;fontStyle=1;align=center;verticalAlign=top;childLayout=stackLayout;horizontal=1;startSize=26;horizontalStack=0;resizeParent=1;resizeParentMax=0;resizeLast=0;collapsible=1;marginBottom=0;fillColor=#ffffff;" parent="1" vertex="1">
          <mxGeometry x="-1241" y="-380" width="190" height="662" as="geometry" />
        </mxCell>
        <mxCell id="_6vL-Fmfz16tMaVCGUEi-23" value="-ADD_USERS = 1" style="text;strokeColor=none;fillColor=none;align=left;verticalAlign=top;spacingLeft=4;spacingRight=4;overflow=hidden;rotatable=0;points=[[0,0.5],[1,0.5]];portConstraint=eastwest;" parent="_6vL-Fmfz16tMaVCGUEi-22" vertex="1">
          <mxGeometry y="26" width="190" height="26" as="geometry" />
        </mxCell>
        <mxCell id="_6vL-Fmfz16tMaVCGUEi-26" value="-SEE_USERS = 2" style="text;strokeColor=none;fillColor=none;align=left;verticalAlign=top;spacingLeft=4;spacingRight=4;overflow=hidden;rotatable=0;points=[[0,0.5],[1,0.5]];portConstraint=eastwest;" parent="_6vL-Fmfz16tMaVCGUEi-22" vertex="1">
          <mxGeometry y="52" width="190" height="26" as="geometry" />
        </mxCell>
        <mxCell id="_6vL-Fmfz16tMaVCGUEi-27" value="-ADD_SONG = 3" style="text;strokeColor=none;fillColor=none;align=left;verticalAlign=top;spacingLeft=4;spacingRight=4;overflow=hidden;rotatable=0;points=[[0,0.5],[1,0.5]];portConstraint=eastwest;" parent="_6vL-Fmfz16tMaVCGUEi-22" vertex="1">
          <mxGeometry y="78" width="190" height="26" as="geometry" />
        </mxCell>
        <mxCell id="_6vL-Fmfz16tMaVCGUEi-28" value="-SEE_SONGS = 4" style="text;strokeColor=none;fillColor=none;align=left;verticalAlign=top;spacingLeft=4;spacingRight=4;overflow=hidden;rotatable=0;points=[[0,0.5],[1,0.5]];portConstraint=eastwest;" parent="_6vL-Fmfz16tMaVCGUEi-22" vertex="1">
          <mxGeometry y="104" width="190" height="26" as="geometry" />
        </mxCell>
        <mxCell id="_6vL-Fmfz16tMaVCGUEi-29" value="-ADD_PLAYLIST = 5" style="text;strokeColor=none;fillColor=none;align=left;verticalAlign=top;spacingLeft=4;spacingRight=4;overflow=hidden;rotatable=0;points=[[0,0.5],[1,0.5]];portConstraint=eastwest;" parent="_6vL-Fmfz16tMaVCGUEi-22" vertex="1">
          <mxGeometry y="130" width="190" height="26" as="geometry" />
        </mxCell>
        <mxCell id="_6vL-Fmfz16tMaVCGUEi-30" value="-ADD_SONG_TO_PLAYLIST = 6" style="text;strokeColor=none;fillColor=none;align=left;verticalAlign=top;spacingLeft=4;spacingRight=4;overflow=hidden;rotatable=0;points=[[0,0.5],[1,0.5]];portConstraint=eastwest;" parent="_6vL-Fmfz16tMaVCGUEi-22" vertex="1">
          <mxGeometry y="156" width="190" height="26" as="geometry" />
        </mxCell>
        <mxCell id="_6vL-Fmfz16tMaVCGUEi-31" value="-SEE_PLAYLIST = 7" style="text;strokeColor=none;fillColor=none;align=left;verticalAlign=top;spacingLeft=4;spacingRight=4;overflow=hidden;rotatable=0;points=[[0,0.5],[1,0.5]];portConstraint=eastwest;" parent="_6vL-Fmfz16tMaVCGUEi-22" vertex="1">
          <mxGeometry y="182" width="190" height="26" as="geometry" />
        </mxCell>
        <mxCell id="_6vL-Fmfz16tMaVCGUEi-32" value="-RATE_PLAYLIST = 8" style="text;strokeColor=none;fillColor=none;align=left;verticalAlign=top;spacingLeft=4;spacingRight=4;overflow=hidden;rotatable=0;points=[[0,0.5],[1,0.5]];portConstraint=eastwest;" parent="_6vL-Fmfz16tMaVCGUEi-22" vertex="1">
          <mxGeometry y="208" width="190" height="26" as="geometry" />
        </mxCell>
        <mxCell id="_6vL-Fmfz16tMaVCGUEi-33" value="-EXIT = 9" style="text;strokeColor=none;fillColor=none;align=left;verticalAlign=top;spacingLeft=4;spacingRight=4;overflow=hidden;rotatable=0;points=[[0,0.5],[1,0.5]];portConstraint=eastwest;" parent="_6vL-Fmfz16tMaVCGUEi-22" vertex="1">
          <mxGeometry y="234" width="190" height="26" as="geometry" />
        </mxCell>
        <mxCell id="_6vL-Fmfz16tMaVCGUEi-34" value="-PUBLIC_PL= 1" style="text;strokeColor=none;fillColor=none;align=left;verticalAlign=top;spacingLeft=4;spacingRight=4;overflow=hidden;rotatable=0;points=[[0,0.5],[1,0.5]];portConstraint=eastwest;" parent="_6vL-Fmfz16tMaVCGUEi-22" vertex="1">
          <mxGeometry y="260" width="190" height="26" as="geometry" />
        </mxCell>
        <mxCell id="_6vL-Fmfz16tMaVCGUEi-35" value="-RESTRICTED_PL = 2" style="text;strokeColor=none;fillColor=none;align=left;verticalAlign=top;spacingLeft=4;spacingRight=4;overflow=hidden;rotatable=0;points=[[0,0.5],[1,0.5]];portConstraint=eastwest;" parent="_6vL-Fmfz16tMaVCGUEi-22" vertex="1">
          <mxGeometry y="286" width="190" height="26" as="geometry" />
        </mxCell>
        <mxCell id="_6vL-Fmfz16tMaVCGUEi-36" value="-PRIVATE_PL = 3" style="text;strokeColor=none;fillColor=none;align=left;verticalAlign=top;spacingLeft=4;spacingRight=4;overflow=hidden;rotatable=0;points=[[0,0.5],[1,0.5]];portConstraint=eastwest;" parent="_6vL-Fmfz16tMaVCGUEi-22" vertex="1">
          <mxGeometry y="312" width="190" height="26" as="geometry" />
        </mxCell>
        <mxCell id="_6vL-Fmfz16tMaVCGUEi-24" value="" style="line;strokeWidth=1;fillColor=none;align=left;verticalAlign=middle;spacingTop=-1;spacingLeft=3;spacingRight=3;rotatable=0;labelPosition=right;points=[];portConstraint=eastwest;" parent="_6vL-Fmfz16tMaVCGUEi-22" vertex="1">
          <mxGeometry y="338" width="190" height="8" as="geometry" />
        </mxCell>
        <mxCell id="_6vL-Fmfz16tMaVCGUEi-25" value="+Menu()" style="text;strokeColor=none;fillColor=none;align=left;verticalAlign=top;spacingLeft=4;spacingRight=4;overflow=hidden;rotatable=0;points=[[0,0.5],[1,0.5]];portConstraint=eastwest;" parent="_6vL-Fmfz16tMaVCGUEi-22" vertex="1">
          <mxGeometry y="346" width="190" height="26" as="geometry" />
        </mxCell>
        <mxCell id="_6vL-Fmfz16tMaVCGUEi-39" value="+showLogo():void" style="text;strokeColor=none;fillColor=none;align=left;verticalAlign=top;spacingLeft=4;spacingRight=4;overflow=hidden;rotatable=0;points=[[0,0.5],[1,0.5]];portConstraint=eastwest;" parent="_6vL-Fmfz16tMaVCGUEi-22" vertex="1">
          <mxGeometry y="372" width="190" height="26" as="geometry" />
        </mxCell>
        <mxCell id="_6vL-Fmfz16tMaVCGUEi-40" value="+showMenu():void" style="text;strokeColor=none;fillColor=none;align=left;verticalAlign=top;spacingLeft=4;spacingRight=4;overflow=hidden;rotatable=0;points=[[0,0.5],[1,0.5]];portConstraint=eastwest;" parent="_6vL-Fmfz16tMaVCGUEi-22" vertex="1">
          <mxGeometry y="398" width="190" height="26" as="geometry" />
        </mxCell>
        <mxCell id="_6vL-Fmfz16tMaVCGUEi-41" value="+readOption():void" style="text;strokeColor=none;fillColor=none;align=left;verticalAlign=top;spacingLeft=4;spacingRight=4;overflow=hidden;rotatable=0;points=[[0,0.5],[1,0.5]];portConstraint=eastwest;" parent="_6vL-Fmfz16tMaVCGUEi-22" vertex="1">
          <mxGeometry y="424" width="190" height="26" as="geometry" />
        </mxCell>
        <mxCell id="_6vL-Fmfz16tMaVCGUEi-42" value="+readUsersData():void" style="text;strokeColor=none;fillColor=none;align=left;verticalAlign=top;spacingLeft=4;spacingRight=4;overflow=hidden;rotatable=0;points=[[0,0.5],[1,0.5]];portConstraint=eastwest;" parent="_6vL-Fmfz16tMaVCGUEi-22" vertex="1">
          <mxGeometry y="450" width="190" height="26" as="geometry" />
        </mxCell>
        <mxCell id="_6vL-Fmfz16tMaVCGUEi-43" value="+readSongData():void" style="text;strokeColor=none;fillColor=none;align=left;verticalAlign=top;spacingLeft=4;spacingRight=4;overflow=hidden;rotatable=0;points=[[0,0.5],[1,0.5]];portConstraint=eastwest;" parent="_6vL-Fmfz16tMaVCGUEi-22" vertex="1">
          <mxGeometry y="476" width="190" height="26" as="geometry" />
        </mxCell>
        <mxCell id="_6vL-Fmfz16tMaVCGUEi-44" value="+readSongData():void" style="text;strokeColor=none;fillColor=none;align=left;verticalAlign=top;spacingLeft=4;spacingRight=4;overflow=hidden;rotatable=0;points=[[0,0.5],[1,0.5]];portConstraint=eastwest;" parent="_6vL-Fmfz16tMaVCGUEi-22" vertex="1">
          <mxGeometry y="502" width="190" height="26" as="geometry" />
        </mxCell>
        <mxCell id="_6vL-Fmfz16tMaVCGUEi-45" value="+readPlayListData():void" style="text;strokeColor=none;fillColor=none;align=left;verticalAlign=top;spacingLeft=4;spacingRight=4;overflow=hidden;rotatable=0;points=[[0,0.5],[1,0.5]];portConstraint=eastwest;" parent="_6vL-Fmfz16tMaVCGUEi-22" vertex="1">
          <mxGeometry y="528" width="190" height="26" as="geometry" />
        </mxCell>
        <mxCell id="_6vL-Fmfz16tMaVCGUEi-46" value="+rateList():void" style="text;strokeColor=none;fillColor=none;align=left;verticalAlign=top;spacingLeft=4;spacingRight=4;overflow=hidden;rotatable=0;points=[[0,0.5],[1,0.5]];portConstraint=eastwest;" parent="_6vL-Fmfz16tMaVCGUEi-22" vertex="1">
          <mxGeometry y="554" width="190" height="26" as="geometry" />
        </mxCell>
        <mxCell id="_6vL-Fmfz16tMaVCGUEi-47" value="+addSong():void" style="text;strokeColor=none;fillColor=none;align=left;verticalAlign=top;spacingLeft=4;spacingRight=4;overflow=hidden;rotatable=0;points=[[0,0.5],[1,0.5]];portConstraint=eastwest;" parent="_6vL-Fmfz16tMaVCGUEi-22" vertex="1">
          <mxGeometry y="580" width="190" height="26" as="geometry" />
        </mxCell>
        <mxCell id="_6vL-Fmfz16tMaVCGUEi-48" value="+doOperation():void" style="text;strokeColor=none;fillColor=none;align=left;verticalAlign=top;spacingLeft=4;spacingRight=4;overflow=hidden;rotatable=0;points=[[0,0.5],[1,0.5]];portConstraint=eastwest;" parent="_6vL-Fmfz16tMaVCGUEi-22" vertex="1">
          <mxGeometry y="606" width="190" height="26" as="geometry" />
        </mxCell>
        <mxCell id="_6vL-Fmfz16tMaVCGUEi-49" value="+startProgram():void" style="text;whiteSpace=wrap;html=1;" parent="_6vL-Fmfz16tMaVCGUEi-22" vertex="1">
          <mxGeometry y="632" width="190" height="30" as="geometry" />
        </mxCell>
        <mxCell id="_6vL-Fmfz16tMaVCGUEi-37" style="edgeStyle=orthogonalEdgeStyle;rounded=0;orthogonalLoop=1;jettySize=auto;html=1;exitX=1;exitY=0.5;exitDx=0;exitDy=0;entryX=0;entryY=0.5;entryDx=0;entryDy=0;endArrow=open;endFill=0;dashed=1;" parent="1" source="_6vL-Fmfz16tMaVCGUEi-26" target="KiHyuANmDvBm40jnsKNg-52" edge="1">
          <mxGeometry relative="1" as="geometry" />
        </mxCell>
        <mxCell id="_6vL-Fmfz16tMaVCGUEi-38" value="mcs" style="edgeLabel;html=1;align=center;verticalAlign=middle;resizable=0;points=[];" parent="_6vL-Fmfz16tMaVCGUEi-37" vertex="1" connectable="0">
          <mxGeometry x="-0.5905" y="1" relative="1" as="geometry">
            <mxPoint x="1" y="4" as="offset" />
          </mxGeometry>
        </mxCell>
        <mxCell id="_6vL-Fmfz16tMaVCGUEi-50" value="Main" style="swimlane;fontStyle=1;align=center;verticalAlign=top;childLayout=stackLayout;horizontal=1;startSize=26;horizontalStack=0;resizeParent=1;resizeParentMax=0;resizeLast=0;collapsible=1;marginBottom=0;fillColor=none;" parent="1" vertex="1">
          <mxGeometry x="-1510" y="-220" width="160" height="74" as="geometry" />
        </mxCell>
        <mxCell id="_6vL-Fmfz16tMaVCGUEi-51" value="." style="text;strokeColor=none;fillColor=none;align=left;verticalAlign=top;spacingLeft=4;spacingRight=4;overflow=hidden;rotatable=0;points=[[0,0.5],[1,0.5]];portConstraint=eastwest;" parent="_6vL-Fmfz16tMaVCGUEi-50" vertex="1">
          <mxGeometry y="26" width="160" height="14" as="geometry" />
        </mxCell>
        <mxCell id="_6vL-Fmfz16tMaVCGUEi-52" value="" style="line;strokeWidth=1;fillColor=none;align=left;verticalAlign=middle;spacingTop=-1;spacingLeft=3;spacingRight=3;rotatable=0;labelPosition=right;points=[];portConstraint=eastwest;" parent="_6vL-Fmfz16tMaVCGUEi-50" vertex="1">
          <mxGeometry y="40" width="160" height="8" as="geometry" />
        </mxCell>
        <mxCell id="_6vL-Fmfz16tMaVCGUEi-53" value="+main(args:String[]):void" style="text;strokeColor=none;fillColor=none;align=left;verticalAlign=top;spacingLeft=4;spacingRight=4;overflow=hidden;rotatable=0;points=[[0,0.5],[1,0.5]];portConstraint=eastwest;" parent="_6vL-Fmfz16tMaVCGUEi-50" vertex="1">
          <mxGeometry y="48" width="160" height="26" as="geometry" />
        </mxCell>
        <mxCell id="_6vL-Fmfz16tMaVCGUEi-55" style="edgeStyle=orthogonalEdgeStyle;rounded=0;orthogonalLoop=1;jettySize=auto;html=1;exitX=1;exitY=0.5;exitDx=0;exitDy=0;entryX=0.009;entryY=0.17;entryDx=0;entryDy=0;entryPerimeter=0;endArrow=open;endFill=0;dashed=1;" parent="1" source="_6vL-Fmfz16tMaVCGUEi-51" target="_6vL-Fmfz16tMaVCGUEi-27" edge="1">
          <mxGeometry relative="1" as="geometry" />
        </mxCell>
        <mxCell id="_6vL-Fmfz16tMaVCGUEi-56" value="initializeProgram" style="edgeLabel;html=1;align=center;verticalAlign=middle;resizable=0;points=[];" parent="_6vL-Fmfz16tMaVCGUEi-55" vertex="1" connectable="0">
          <mxGeometry x="-0.3797" relative="1" as="geometry">
            <mxPoint x="4.48" y="-7" as="offset" />
          </mxGeometry>
        </mxCell>
        <mxCell id="_6vL-Fmfz16tMaVCGUEi-58" value="ui" style="text;html=1;align=center;verticalAlign=middle;resizable=0;points=[];autosize=1;" parent="1" vertex="1">
          <mxGeometry x="-1520" y="-450" width="20" height="20" as="geometry" />
        </mxCell>
        <mxCell id="WSGw9AWgwU0EOVgt91TQ-3" style="edgeStyle=orthogonalEdgeStyle;rounded=0;orthogonalLoop=1;jettySize=auto;html=1;exitX=0;exitY=0.5;exitDx=0;exitDy=0;entryX=1;entryY=0.5;entryDx=0;entryDy=0;endArrow=open;endFill=0;" parent="1" source="KiHyuANmDvBm40jnsKNg-9" target="f4DITkPFxF15eC7RWUfP-6" edge="1">
          <mxGeometry relative="1" as="geometry" />
        </mxCell>
        <mxCell id="WSGw9AWgwU0EOVgt91TQ-4" value="category" style="edgeLabel;html=1;align=center;verticalAlign=middle;resizable=0;points=[];" parent="WSGw9AWgwU0EOVgt91TQ-3" vertex="1" connectable="0">
          <mxGeometry x="-0.1291" y="1" relative="1" as="geometry">
            <mxPoint as="offset" />
          </mxGeometry>
        </mxCell>
      </root>
    </mxGraphModel>
  </diagram>
</mxfile>
